<svg width="22" height="24" viewBox="0 0 22 24" fill="none" xmlns="http://www.w3.org/2000/svg">
<g clip-path="url(#clip0_334_2084)">
<path d="M11 12C12.5913 12 14.1174 11.3679 15.2426 10.2426C16.3679 9.11742 17 7.5913 17 6C17 4.4087 16.3679 2.88258 15.2426 1.75736C14.1174 0.632141 12.5913 0 11 0C9.4087 0 7.88258 0.632141 6.75736 1.75736C5.63214 2.88258 5 4.4087 5 6C5 7.5913 5.63214 9.11742 6.75736 10.2426C7.88258 11.3679 9.4087 12 11 12ZM8.85781 14.25C4.24063 14.25 0.5 17.9906 0.5 22.6078C0.5 23.3766 1.12344 24 1.89219 24H20.1078C20.8766 24 21.5 23.3766 21.5 22.6078C21.5 17.9906 17.7594 14.25 13.1422 14.25H8.85781Z" fill="#9CA3AF"/>
</g>
<defs>
<clipPath id="clip0_334_2084">
<path d="M0.5 0H21.5V24H0.5V0Z" fill="white"/>
</clipPath>
</defs>
</svg>
