<svg width="15" height="15" viewBox="0 0 15 15" fill="none" xmlns="http://www.w3.org/2000/svg">
<path d="M7.49035 0.75C9.24223 2.29993 11.5287 3.10692 13.8654 3C14.2055 4.15726 14.3096 5.3711 14.1714 6.56939C14.0333 7.76767 13.6556 8.92595 13.0609 9.9754C12.4662 11.0248 11.6666 11.944 10.7097 12.6784C9.75274 13.4127 8.65794 13.9472 7.49035 14.25C6.32276 13.9472 5.22796 13.4127 4.27101 12.6784C3.31406 11.944 2.51449 11.0248 1.9198 9.9754C1.32512 8.92595 0.947455 7.76767 0.809261 6.56939C0.671067 5.3711 0.77516 4.15726 1.11535 3C3.452 3.10692 5.73848 2.29993 7.49035 0.75Z" stroke="#5A5A60" stroke-width="1.5" stroke-linecap="round" stroke-linejoin="round"/>
</svg>
